<?xml version="1.0" encoding="iso-8859-1"?>
<!-- Generator: Adobe Illustrator 19.0.0, SVG Export Plug-In . SVG Version: 6.00 Build 0)  -->
<svg version="1.1" id="Layer_1" xmlns="http://www.w3.org/2000/svg" xmlns:xlink="http://www.w3.org/1999/xlink" x="0px" y="0px"
	 viewBox="0 0 512 512" style="enable-background:new 0 0 512 512;" xml:space="preserve">
<g>
	<path style="fill:#454855;" d="M383.766,321.714c-25.99,0-47.061,21.07-47.061,47.061c0,0.061,0,0.134,0,0.195
		c0.102,25.897,21.133,46.866,47.061,46.866c25.99,0,47.05-21.07,47.05-47.061C430.817,342.784,409.757,321.714,383.766,321.714z"/>
	<path style="fill:#454855;" d="M87.558,321.714c-25.99,0-47.061,21.07-47.061,47.061c0,0.175,0,0.338,0,0.512
		c0.277,25.755,21.245,46.548,47.061,46.548c25.826,0,46.794-20.814,47.05-46.579c0-0.164,0-0.317,0-0.482
		C134.608,342.784,113.548,321.714,87.558,321.714z"/>
</g>
<path style="fill:#FFC365;" d="M478.39,299.085v69.689h-47.573c0-25.99-21.06-47.061-47.05-47.061v-72.846L478.39,299.085z"/>
<path style="fill:#9CE5E3;" d="M478.39,223.073v76.012l-94.624-50.217v-82.326v-37.591h0.502
	C436.248,128.952,478.39,171.093,478.39,223.073z"/>
<path style="fill:#7E8A99;" d="M383.766,321.714c25.99,0,47.05,21.07,47.05,47.061s-21.06,47.061-47.05,47.061
	c-25.928,0-46.958-20.968-47.061-46.866c0-0.061,0-0.134,0-0.195C336.706,342.784,357.777,321.714,383.766,321.714z
	 M401.229,368.775l-17.463-17.463c-9.654,0-17.463,7.82-17.463,17.463c0,9.644,7.81,17.463,17.463,17.463
	C393.41,386.238,401.229,378.418,401.229,368.775z"/>
<path style="fill:#FCAF41;" d="M383.766,248.868v72.846c-25.99,0-47.061,21.07-47.061,47.061c0,0.061,0,0.134,0,0.195
	l-139.808,0.195v-120.04v-0.256h62.289L383.766,248.868L383.766,248.868z"/>
<rect x="259.192" y="166.542" style="fill:#9CE5E3;" width="124.577" height="82.322"/>
<polygon style="fill:#FFC365;" points="383.766,128.952 383.766,166.543 259.187,166.543 134.608,166.543 10.039,166.543 
	10.039,128.952 71.355,128.952 197.871,128.952 "/>
<polygon style="fill:#9CE5E3;" points="259.187,166.543 259.187,248.868 196.898,248.868 134.608,248.868 134.608,166.543 "/>
<path style="fill:#7DC156;" d="M197.871,128.952H71.355c0-18.109,14.686-32.784,32.784-32.784h60.937
	c9.059,0,17.258,3.669,23.192,9.603C194.203,111.704,197.871,119.902,197.871,128.952z"/>
<path style="fill:#FF8749;" d="M196.898,249.124v120.039l-62.289,0.092c0-0.164,0-0.317,0-0.482c0-25.99-21.06-47.061-47.05-47.061
	s-47.061,21.07-47.061,47.061c0,0.175,0,0.338,0,0.512H10.039V248.868h124.569h62.289v0.256H196.898z"/>
<rect x="10.039" y="166.542" style="fill:#9CE5E3;" width="124.567" height="82.322"/>
<path style="fill:#7E8A99;" d="M134.608,368.775c0,0.164,0,0.317,0,0.482c-0.256,25.765-21.224,46.579-47.05,46.579
	c-25.816,0-46.784-20.794-47.061-46.548c0-0.175,0-0.338,0-0.512c0-25.99,21.07-47.061,47.061-47.061
	S134.608,342.784,134.608,368.775z M105.021,368.775l-17.463-17.463c-9.654,0-17.463,7.82-17.463,17.463
	c0,9.644,7.81,17.463,17.463,17.463C97.202,386.238,105.021,378.418,105.021,368.775z"/>
<path d="M414.28,191.655c-5.544,0-10.039,4.495-10.039,10.039v29.711c0,5.545,4.496,10.039,10.039,10.039
	c5.544,0,10.039-4.495,10.039-10.039v-29.711C424.32,196.149,419.825,191.655,414.28,191.655z"/>
<circle cx="414.278" cy="170.236" r="10.039"/>
<path d="M452.42,118.913H206.726c-1.818-7.6-5.693-14.575-11.358-20.242c-8.089-8.089-18.846-12.543-30.29-12.543H104.14
	c-20.155,0-37.092,14.001-41.624,32.784H10.039C4.496,118.912,0,123.406,0,128.951v240.335c0,5.545,4.496,10.039,10.039,10.039
	h21.419c4.994,26.421,28.341,46.548,56.1,46.548c27.756,0,51.088-20.112,56.086-46.591l51.801-0.073
	c0.476,0.069,0.958,0.116,1.453,0.116c0.504,0,0.996-0.049,1.48-0.121l129.23-0.184c4.852,26.595,28.216,46.853,56.159,46.853
	c28.054,0,51.429-20.349,56.187-47.06h38.435c5.544,0,10.039-4.495,10.039-10.039v-69.741c0-0.02,0-0.04,0-0.06v-75.899
	c0-34.492-16.856-65.115-42.758-84.081h6.749c21.781,0,39.501,17.72,39.501,39.501c0,5.545,4.496,10.039,10.039,10.039
	S512,184.037,512,178.492C512,145.64,485.273,118.913,452.42,118.913z M327.531,358.942l-120.594,0.172V258.907h166.791v53.669
	C350.208,316.767,331.637,335.394,327.531,358.942z M20.078,176.583h104.49v62.246H20.078V176.583z M144.647,176.583h104.501v62.246
	H144.647V176.583z M373.728,176.583v62.246H269.227v-62.246H373.728z M104.139,106.207h60.937c6.082,0,11.797,2.366,16.093,6.662
	c1.793,1.794,3.251,3.834,4.34,6.045H83.731C87.447,111.392,95.199,106.207,104.139,106.207z M373.728,138.991v17.512H20.078
	v-17.512H373.728z M20.078,258.907h166.781v100.236l-43.029,0.061c-4.567-26.942-28.054-47.529-56.272-47.529
	c-28.238,0-51.74,20.608-56.29,47.573h-11.19V258.907z M87.558,405.795c-20.18,0-36.777-16.4-37.022-36.567v-0.454
	c0-20.414,16.608-37.021,37.022-37.021c20.408,0,37.011,16.607,37.011,37.021v0.383C124.369,389.359,107.766,405.795,87.558,405.795
	z M383.767,405.795c-20.333,0-36.941-16.539-37.022-36.827v-0.195c0-20.414,16.608-37.021,37.022-37.021
	c20.408,0,37.011,16.607,37.011,37.021S404.175,405.795,383.767,405.795z M439.955,358.735
	c-4.178-23.449-22.704-41.979-46.148-46.158v-47.016l74.544,39.562v53.612H439.955z M468.351,223.073v59.32l-74.544-39.562V139.548
	C435.692,144.301,468.351,179.936,468.351,223.073z"/>
<path d="M105.02,358.735c-5.544,0-10.039,4.495-10.039,10.039c0,4.094-3.33,7.424-7.424,7.424c-4.094,0-7.425-3.33-7.425-7.424
	s3.33-7.424,7.425-7.424c5.544,0,10.039-4.495,10.039-10.039s-4.496-10.039-10.039-10.039c-15.164,0-27.503,12.338-27.503,27.502
	s12.338,27.502,27.503,27.502s27.502-12.338,27.502-27.502C115.059,363.23,110.565,358.735,105.02,358.735z"/>
<path d="M401.229,358.735c-5.544,0-10.039,4.495-10.039,10.039c0,4.094-3.33,7.424-7.424,7.424s-7.425-3.33-7.425-7.424
	s3.33-7.424,7.425-7.424c5.544,0,10.039-4.495,10.039-10.039s-4.496-10.039-10.039-10.039c-15.164,0-27.503,12.338-27.503,27.502
	s12.338,27.502,27.503,27.502s27.502-12.338,27.502-27.502C411.269,363.23,406.774,358.735,401.229,358.735z"/>
<g>
</g>
<g>
</g>
<g>
</g>
<g>
</g>
<g>
</g>
<g>
</g>
<g>
</g>
<g>
</g>
<g>
</g>
<g>
</g>
<g>
</g>
<g>
</g>
<g>
</g>
<g>
</g>
<g>
</g>
</svg>
