<svg xmlns="http://www.w3.org/2000/svg" viewBox="0 0 512 512">
  <path d="M449.716 239.842c-.543-7.535-7.082-13.19-14.628-12.66-7.536.542-13.204 7.09-12.662 14.627.337 4.652.506 9.43.506 14.19 0 109.06-88.726 197.785-197.786 197.785S27.36 365.06 27.36 256 116.086 58.214 225.147 58.214c43.19 0 84.21 13.668 118.62 39.525 6.04 4.535 14.615 3.32 19.154-2.72 4.54-6.04 3.326-14.617-2.714-19.155-39.19-29.447-85.89-45.012-135.058-45.012C101 30.853 0 131.853 0 256s101 225.145 225.147 225.145 225.145-101 225.145-225.145c0-5.414-.195-10.85-.576-16.158z"/>
  <path d="M496.395 61.77c-20.808-20.807-54.666-20.807-75.474 0L223.81 258.878l-69.873-69.875c-20.808-20.807-54.666-20.807-75.474 0-20.808 20.808-20.808 54.666 0 75.474l120.34 120.34c6.896 6.896 15.952 10.343 25.008 10.343 9.06 0 18.116-3.447 25.01-10.342l247.577-247.576c20.806-20.807 20.806-54.663 0-75.472zm-19.346 56.127L229.47 365.475c-3.12 3.12-8.2 3.12-11.32 0L97.812 245.133c-10.142-10.14-10.142-26.64 0-36.78 5.07-5.073 11.728-7.607 18.39-7.607s13.32 2.535 18.39 7.606l71.88 71.882c4.633 4.63 10.792 7.18 17.34 7.18 6.55 0 12.71-2.55 17.34-7.18L440.27 81.114c10.138-10.14 26.64-10.14 36.78 0s10.14 26.64 0 36.78z"/>
</svg>
