<svg xmlns="http://www.w3.org/2000/svg" id="id-card" viewBox="0 0 512 512">
  <path d="M479.388 89.13H32.612C14.63 89.13 0 103.76 0 121.742v268.516c0 17.982 14.63 32.612 32.612 32.612h446.776c17.982 0 32.612-14.63 32.612-32.612V121.742c0-17.982-14.63-32.612-32.612-32.612zm10.87 301.127c0 5.994-4.876 10.87-10.87 10.87H32.612c-5.994 0-10.87-4.876-10.87-10.87V121.74c0-5.993 4.876-10.87 10.87-10.87h446.776c5.994 0 10.87 4.877 10.87 10.87v268.517z"/>
  <path d="M422.107 184.506H305.442c-6.004 0-10.87 4.868-10.87 10.87 0 6.005 4.866 10.872 10.87 10.872h116.665c6.004 0 10.87-4.867 10.87-10.87 0-6.004-4.866-10.872-10.87-10.872zm0 60.624H305.442c-6.004 0-10.87 4.866-10.87 10.87 0 6.003 4.866 10.87 10.87 10.87h116.665c6.004 0 10.87-4.867 10.87-10.87 0-6.004-4.866-10.87-10.87-10.87zm0 60.622H305.442c-6.004 0-10.87 4.868-10.87 10.87 0 6.004 4.866 10.872 10.87 10.872h116.665c6.004 0 10.87-4.868 10.87-10.87 0-6.004-4.866-10.872-10.87-10.872zm-221.36-15.51c-.22-.014-20.116.815-25.49-20.71 7.26-5.714 13.354-13.655 17.708-23.14.322.033.644.073.964.073 2.96 0 5.83-1.35 7.72-3.774 9.12-11.72 13.87-26.94 13.36-42.86-1.06-33-24.02-59.02-52.31-59.33-.78-.03-1.47-.01-2.02.01h-.04c-6.87-2.97-14.1-4.37-21.55-4.12-15.94.51-30.55 8.41-41.16 22.23-10.17 13.25-15.45 30.48-14.87 48.53.1 3.06.34 5.87.73 8.54 1.05 7.69 3.17 15.06 6.3 21.9 1.5 3.29 4.7 5.49 8.31 5.7.98.06 1.95-.04 2.88-.26 4.42 10.97 11.11 20.1 19.2 26.48-5.27 21.49-25.28 20.75-25.5 20.76-21.39.7-38.58 18.31-38.58 39.86v39.62c0 5.404 4.38 9.784 9.78 9.784h163.34c5.4 0 9.78-4.38 9.78-9.783v-39.62c0-21.56-17.19-39.164-38.58-39.864zm-97.444-76.414c-.045-.3-.088-.6-.13-.9-.292-2.013-.47-4.116-.545-6.427-.434-13.54 3.413-26.32 10.833-35.98 6.98-9.08 16.31-14.26 26.27-14.58.33-.01 8.15-.63 14.73 3.26 1.38.82 3.07 1.06 4.66 1.02.2 0 3.14-.15 3.28-.15 17.53.12 32.37 18.23 33.08 40.39.08 2.54-.02 5.05-.29 7.5-6.47-11.11-16.09-19.72-27.54-24.53-2.46-1.03-5.23-1.02-7.68.05-2.45 1.06-4.35 3.08-5.28 5.58-.75 2.05-1.67 4.04-2.72 5.92-2.57 4.6-7.823 7.3-13.714 7.12-1.173-.04-2.357-.04-3.52-.003-5.735.183-11.326 1.276-16.66 3.263-5.326 2.012-10.277 4.87-14.736 8.497zm13.635 14.2c2.48-1.83 5.203-3.186 7.976-4.374 5.056-2.168 11.888-2.05 12.627-2.024 12.61.428 24.11-5.47 30.51-15.515 5 3.825 9.12 8.977 12 15.082-3.03 21.957-16.69 38.66-32.2 38.66-13.83 0-26.25-13.084-30.9-31.828zm21.5 50.295c3.06.722 6.204 1.102 9.403 1.102 3.23 0 6.4-.383 9.47-1.1 3.16 10.07 9.78 18.613 18.46 24.245-4.17 11.486-15.21 19.54-27.89 19.54s-23.71-8.054-27.89-19.54c8.68-5.634 15.31-14.178 18.46-24.247zm-62.454 81.61v-29.83c0-11.208 9.12-20.326 20.328-20.326.224 0 3.793-.205 5.322-.41 6.966 19 25.257 32.31 46.235 32.31 20.97 0 39.26-13.31 46.23-32.31 1.53.205 5.09.41 5.32.41 11.21 0 20.33 9.12 20.33 20.327v29.83H75.98z"/>
</svg>
