<svg xmlns="http://www.w3.org/2000/svg" viewBox="0 0 512.001 512.001">
  <path d="M313.365 107.393c-9.915-11.15-25.377-17.545-42.422-17.545-30.44 0-57.65 20.784-60.66 46.36-1.348 11.698 2.282 23.047 10.222 31.955 9.756 10.946 25.08 17.223 42.048 17.223 31.23 0 58.04-20.365 61.036-46.333 1.35-11.484-2.28-22.727-10.23-31.66zm-14.19 28.814c-1.536 13.335-18.31 24.6-36.624 24.6-9.81 0-18.67-3.363-23.69-8.998-3.3-3.71-4.7-8.02-4.15-12.76 1.545-13.12 18.48-24.63 36.248-24.63 9.886 0 18.88 3.47 24.058 9.3 2.276 2.55 4.848 6.79 4.178 12.48zm2.577 233.276c-3.072-2.06-10.262-6.883-4.458-40.363.15-.73.732-3.43 1.637-7.623 2.07-9.557 5.9-27.344 10.07-47.18l.03-.133c4.26-21.437.89-40.19-9.73-54.233-9.59-12.67-24.772-20.45-42.75-21.88-26.586-2.12-54.4 13.74-62.92 29.36-3.94 6.92-2.05 12.54-.566 15.29 1.84 3.4 4.52 5.31 6.483 6.7 3.02 2.15 10.093 7.17 3.377 40.58-.63 3.057-10 50.7-11.24 57.466l-.026.137c-3.69 21.54-.04 40.366 11.154 53.96 18.023 21.89 45.457 20.84 46.53 20.84 25.57 0 51.13-15.883 58.91-31.08 3.758-7.02 1.728-12.59.168-15.3-1.924-3.35-4.66-5.183-6.655-6.522zm-16.826-100.147c-4.15 19.742-7.97 37.457-10.023 46.98-1.397 6.473-1.68 7.788-1.78 8.327-.006.043-.015.087-.022.132-6.24 35.864.08 51.56 9.02 60.34-2.44 2.18-5.78 4.533-9.93 6.67-8.14 4.2-17.16 6.374-24.76 5.973-11.06-.59-19.86-4.584-25.42-11.55-6.47-8.107-8.6-20.002-6.14-34.398 1.34-7.28 10.72-54.936 11.118-56.832.007-.042.016-.082.025-.124 7.177-35.688 1.273-51.544-7.43-60.556 2.497-2.114 5.904-4.38 10.1-6.405 8.25-3.985 17.33-5.924 24.91-5.322 11.048.88 19.73 5.11 25.106 12.21 6.26 8.28 8.072 20.23 5.24 34.56z"/>
  <path d="M459.614 394.96c33.83-40.597 52.388-90.747 52.388-141.963 0-62.775-26.778-121.727-75.397-165.998-48.3-43.98-112.438-68.2-180.603-68.2S123.696 43.02 75.397 87C26.777 131.27 0 190.223 0 252.998s26.776 121.73 75.396 165.998c48.3 43.978 112.438 68.197 180.603 68.197 42.62 0 84.63-9.73 121.86-28.187l89.22 33.412c1.4.525 2.86.78 4.3.78 3.04 0 6.03-1.127 8.34-3.26 3.41-3.146 4.753-7.945 3.48-12.406l-23.6-82.57zm-78.19 39.134c-3.268-1.225-6.903-1-10 .616-34.94 18.256-74.853 27.906-115.424 27.906-127.606 0-231.422-94.033-231.422-209.617S128.393 43.38 255.998 43.38s231.424 94.033 231.424 209.616c0 48.095-17.515 93.34-50.652 130.846-2.776 3.14-3.76 7.483-2.606 11.513l18.72 65.498-71.46-26.76z"/>
</svg>
